PathFileType	4	(X/Y/Z)	Formatted/subject04/trials/walk2/markers.trc
DataRate	CameraRate	NumFrames	NumMarkers	Units	OrigDataRate	OrigDataStartFrame	OrigNumFrames
199.9999999999954	199.9999999999954	4	64	m	199.9999999999954	55	223
Frame#	Time	CLAV			C7			RACR			RASH			RPSH			RLEL			RMEL			RUA1			RUA2			RUA3			RFAsuperior			RFAradius			RFAulna			RASI			RPSI			RCAL			RTOE			RMT5			RTH1			RTH2			RTH3			RTB1			RTB2			RTB3			RLFC			RMFC			RLMAL			RMMAL			RHJC			RKJC			REJC			RAJC			RSJC			LACR			LASH			LPSH			LLEL			LMEL			LUA1			LUA2			LUA3			LFAsuperior			LFAradius			LFAulna			LASI			LPSI			LCAL			LTOE			LMT5			LTH1			LTH2			LTH3			LTB1			LTB2			LTB3			LLFC			LMFC			LLMAL			LMMAL			LHJC			LKJC			LEJC			LAJC			LSJC			
		X1	Y1	Z1	X2	Y2	Z2	X3	Y3	Z3	X4	Y4	Z4	X5	Y5	Z5	X6	Y6	Z6	X7	Y7	Z7	X8	Y8	Z8	X9	Y9	Z9	X10	Y10	Z10	X11	Y11	Z11	X12	Y12	Z12	X13	Y13	Z13	X14	Y14	Z14	X15	Y15	Z15	X16	Y16	Z16	X17	Y17	Z17	X18	Y18	Z18	X19	Y19	Z19	X20	Y20	Z20	X21	Y21	Z21	X22	Y22	Z22	X23	Y23	Z23	X24	Y24	Z24	X25	Y25	Z25	X26	Y26	Z26	X27	Y27	Z27	X28	Y28	Z28	X29	Y29	Z29	X30	Y30	Z30	X31	Y31	Z31	X32	Y32	Z32	X33	Y33	Z33	X34	Y34	Z34	X35	Y35	Z35	X36	Y36	Z36	X37	Y37	Z37	X38	Y38	Z38	X39	Y39	Z39	X40	Y40	Z40	X41	Y41	Z41	X42	Y42	Z42	X43	Y43	Z43	X44	Y44	Z44	X45	Y45	Z45	X46	Y46	Z46	X47	Y47	Z47	X48	Y48	Z48	X49	Y49	Z49	X50	Y50	Z50	X51	Y51	Z51	X52	Y52	Z52	X53	Y53	Z53	X54	Y54	Z54	X55	Y55	Z55	X56	Y56	Z56	X57	Y57	Z57	X58	Y58	Z58	X59	Y59	Z59	X60	Y60	Z60	X61	Y61	Z61	X62	Y62	Z62	X63	Y63	Z63	X64	Y64	Z64	

56	1.685	1.595256349994527	1.452091812860894	-0.4168497270164297	1.490471553967874	1.551309513829843	-0.4397289999822755	1.544992713175659	1.493212056564232	-0.2704027556954325	1.599328141686706	1.440946402297355	-0.248681040780899	1.500149421934771	1.463939103961703	-0.2450131778402496	1.488639707359745	1.164742040305248	-0.1603398827847773	1.440427493975449	1.167574883345723	-0.2316726984381098	1.526909642076487	1.345556201101394	-0.1951593829700562	1.467954359436057	1.314760721542256	-0.1824002083005823	1.507925158869455	1.246966581477754	-0.1783064838890526	1.529461669999784	1.097637714268345	-0.2315623555557788	1.625405785135191	0.9370805561312898	-0.2181983397255662	1.571916056998923	0.9273842784562708	-0.1688528203761677	1.570694920452981	1.008732043040107	-0.3312027078551979	1.390502683174587	1.051780689833743	-0.4076649826672467	1.413615421314892	0.06791987395020276	-0.3848795345481986	1.6484430893538	0.05170502809543551	-0.3873783587435241	1.628668634046698	0.02801476783100822	-0.3134128167518109	1.527413194928062	0.8325408930662116	-0.2719458684579399	1.570611397302894	0.7357833234349638	-0.2824738595209986	1.513427742007436	0.5974310335551067	-0.2960428539184454	1.568872810082314	0.3371783543053524	-0.3608711663984241	1.51672754683646	0.2375718308176381	-0.3185418641496201	1.537193235687216	0.1622814947719701	-0.3801743151620481	1.538455491571882	0.479350217537589	-0.3109164720145038	1.54457315783566	0.4946707181297563	-0.4354629288310033	1.491746479441418	0.06308723604645933	-0.3199619172280478	1.499622622896223	0.06224436535116462	-0.4209088712054983	1.485043691831847	0.9228324513615992	-0.3813002757949968	1.546031190028313	0.4936182816601944	-0.3782672970032285	1.466120696316177	1.161319592803829	-0.1935369911648804	1.481636792945945	0.0517598283930441	-0.3781145150551901	1.552867870418912	1.451717333392019	-0.2469628303863518	1.535564143310008	1.518254512541663	-0.6174798365672231	1.588833204941172	1.457994026657456	-0.6393295885817705	1.481720187609081	1.482826144454952	-0.6353682966058691	1.463707694204114	1.188965272421244	-0.7168208326679689	1.425997105848877	1.184039808655769	-0.6397713748009006	1.493883065139924	1.393864129708945	-0.6931926856006199	1.429285260983998	1.328772171180694	-0.6799014209843919	1.483125963153723	1.258504297363515	-0.7056409342460137	1.496118589751513	1.107703713842423	-0.6646329504367686	1.546315778811458	0.927616028362647	-0.6811773550326728	1.487549590019109	0.928596950258748	-0.7277542019226138	1.565120624270309	1.012646408307948	-0.5885643949744247	1.390850499519446	1.054792586571004	-0.5008981458547694	1.199478718310512	0.300022415090819	-0.5712210318904598	1.335326110770353	0.1018604893491496	-0.5476997587300237	1.303228530297896	0.1076215967877836	-0.6350112431457526	1.504818520329977	0.870489741393106	-0.6513046907021087	1.589184284618874	0.755900074596454	-0.6438416411992076	1.536925396620667	0.6261136780266642	-0.6497024848482293	1.480442955341758	0.3785746592308691	-0.5959493730748384	1.41350421669265	0.3645842493325403	-0.6398440144135511	1.368185951224922	0.2969961925951746	-0.5852727118642922	1.589815381203262	0.5162000277978074	-0.6368132378315002	1.592352199087777	0.5063515808113468	-0.5183758690443827	1.252324012316768	0.2387941874614147	-0.6312742208579856	1.254600755407782	0.2368186983985532	-0.5300618428209332	1.481206925893171	0.9270051638863307	-0.540671864275992	1.596974337786167	0.50291864311288	-0.575080329444934	1.445195429846299	1.179844356437303	-0.6799393728937657	1.23565516822747	0.240560697115355	-0.5735570688180766	1.542372933673377	1.46876495775212	-0.6376113781872232	
57	1.69	1.601315069409213	1.45267450100953	-0.416866350553138	1.496586449583698	1.551986658800965	-0.4395925094808674	1.551380095159168	1.493922381135672	-0.2703428583434565	1.605704869542896	1.441612902560421	-0.2487001310293119	1.506556916491982	1.46470829638296	-0.2448501712885299	1.496347299122045	1.165295709633744	-0.1598419640503934	1.447821568258348	1.167929598437534	-0.2309695197658163	1.533872263919831	1.346215184238353	-0.1949242525519675	1.475073812475383	1.315233021201015	-0.1818961624387171	1.515284836085499	1.247573134489868	-0.1779360962209442	1.537613006460231	1.098918477232913	-0.2313836586616008	1.635321203229648	0.9393594657499736	-0.2188736100633798	1.58211844584115	0.928935451706722	-0.1693664829583709	1.576214565304726	1.008813481041777	-0.3310736453694963	1.396066927112225	1.052487323162787	-0.4072860577682805	1.413665601290093	0.06806033170157605	-0.3848204674060957	1.648482341053413	0.05169206579500579	-0.3873458630546367	1.628704244974237	0.02806193791986705	-0.3133620615281928	1.532078146121078	0.832569033193745	-0.2720960571868164	1.574363014487562	0.735417892046166	-0.2827071950211315	1.515881403893966	0.5975992754722428	-0.2961747228171493	1.569729035467404	0.3370394847585706	-0.3609923979989277	1.517324803084314	0.2376005760825656	-0.3185888875449243	1.537545080130301	0.1622238549425792	-0.3801967478078251	1.539792013206305	0.4792935056482115	-0.3110985113290148	1.545819959686822	0.4945631305994652	-0.4356555902106659	1.491849930656942	0.06318664487899944	-0.3199138661600415	1.499670381261635	0.06227426934358454	-0.4208645457381261	1.490340298242738	0.9232527361097448	-0.3813688569861983	1.547320486281179	0.4935351928577817	-0.3784499495853906	1.473697999301337	1.161780429165495	-0.1929405898669117	1.481677578535523	0.0518606432657378	-0.3780558088434694	1.559259010936195	1.45243193979659	-0.2468966173887426	1.541297272909812	1.51879290067606	-0.6174139123811787	1.594462238345903	1.458466893965995	-0.6393362779870849	1.487382449050916	1.483409919294337	-0.6351783214670403	1.467317960667578	1.190058554702929	-0.7167164676183819	1.429961973422903	1.185251166725767	-0.6394870246395218	1.498812434767616	1.394745156305701	-0.692970367133752	1.43390042339074	1.330015341508397	-0.6794433964002738	1.487199326388287	1.259467504306458	-0.7055421980824984	1.499395262194605	1.108491086010654	-0.6647169252280749	1.548400084650269	0.928122366874377	-0.6817669137220105	1.489513804042108	0.9295726536323773	-0.7281795460930554	1.570477211162814	1.013506276950638	-0.5884187317112509	1.39635918938701	1.055775980427284	-0.5005100596791422	1.213578204633754	0.2953183909018197	-0.5706883699947052	1.354847729048756	0.1009322546394325	-0.5476045088919199	1.322465832801053	0.1059065187438773	-0.6348593645390738	1.510720623797368	0.8716575701403919	-0.6513402274107132	1.59668349063259	0.7582615558409305	-0.6438702545214381	1.546237083503818	0.6277545871219481	-0.649609655294947	1.493704318576674	0.379121411209776	-0.5957182602684329	1.426997177228332	0.3639504833756396	-0.6395733179139876	1.38289042517084	0.2956045284944744	-0.5849533349885029	1.600666091635227	0.5185982003200664	-0.6366922268114683	1.603430121224624	0.5088615629627679	-0.5182506981501014	1.268036379156191	0.2353759226388345	-0.6308735295612031	1.270398374188486	0.2334794171514445	-0.529661594343765	1.486406424188856	0.9279083307086479	-0.5407247027889074	1.608063145144427	0.5054839258289199	-0.5749557919841777	1.448935748532706	1.180996985056739	-0.6797554158518037	1.251368495824642	0.2368741431884442	-0.5731485128036534	1.548016379739202	1.469285931202163	-0.6375327643465155	
58	1.695	1.607377250186995	1.453202273402244	-0.4169064903967833	1.502708213043463	1.552611995218985	-0.4394800737880101	1.557778288375544	1.494585733618776	-0.2703071205301064	1.612090984639248	1.442231224207959	-0.2487431071009869	1.512975308669551	1.465433389273383	-0.2447084679155349	1.504026761957412	1.165813567795468	-0.1593815402555352	1.455199368083945	1.168252500155615	-0.2303093227149155	1.540828056136877	1.346832214335928	-0.1947179321506791	1.482183255411242	1.315669758690315	-0.1814298865185302	1.522626325786599	1.248140869918135	-0.1775989527164162	1.545735132049594	1.100176905632136	-0.231243628674599	1.645192324445946	0.9416365295581509	-0.2195951432696935	1.592279560514499	0.9304826287267499	-0.1699365185798863	1.581714247045258	1.008851266400116	-0.3309378507653736	1.40161738303303	1.053143339922662	-0.4069131074719099	1.413713946377623	0.06819799403149977	-0.3847677969394153	1.648519431289389	0.05167110944346087	-0.3873065695185493	1.628732966387952	0.02809991669916169	-0.3133062073874622	1.536721764545878	0.8325570533512138	-0.2722401258150751	1.578092683171284	0.7350219566633597	-0.2829313638803078	1.518322583328787	0.5977475607463629	-0.2962999669243489	1.57057814337185	0.336894259064593	-0.361105451179767	1.517913649940847	0.2376224042053809	-0.3186330154875911	1.537892940480064	0.1621614040586881	-0.3802163212304243	1.54111784916095	0.47922789249037	-0.311271806057246	1.547062472040103	0.4944489618702847	-0.4358388321524781	1.491946922409509	0.06328035976593804	-0.3198678002430266	1.499717974175395	0.06230069931485627	-0.4208216639823986	1.495623347859898	0.923627176137416	-0.3814338965974788	1.548602459851741	0.4934446363903983	-0.3786230003939418	1.481252238062317	1.162207372911515	-0.1923843193792899	1.481715752778091	0.05195699822914523	-0.3779999360261629	1.565660246231244	1.453100278432857	-0.2468530803745619	1.547029065638372	1.519270450211944	-0.6173714396048827	1.600086565470563	1.45887598663459	-0.6393655576804809	1.49304163542329	1.483934324905248	-0.6350081473601927	1.470912944014021	1.191108590785452	-0.7166308560188079	1.433929996759928	1.186409360638444	-0.6392154410587453	1.503729269026765	1.395573082898764	-0.6927615380507754	1.438509894850279	1.331205082404914	-0.6789887087713363	1.491258439112819	1.260383882300012	-0.7054625928412197	1.50268464783105	1.109248186398451	-0.6648247635618595	1.550542150345854	0.9286207810716745	-0.6823874932010022	1.491531604628531	0.9305248816064698	-0.728625569658078	1.575834660355936	1.014316373941817	-0.5882644838412321	1.40186158812957	1.05670658025212	-0.5001271562968713	1.227931443495292	0.2903164749395153	-0.5701439228490977	1.374607728414743	0.09991736558550671	-0.5475572067907367	1.341935641043903	0.1040883626867005	-0.6347459551014989	1.516563035968412	0.8727869934057491	-0.6513850747867455	1.604086487634481	0.7605886917190627	-0.6439515335323428	1.555433801649805	0.6293967566164584	-0.6495588419926306	1.506994861547039	0.379620481670659	-0.595547215720993	1.440541338855333	0.3632166488668054	-0.6393434419341864	1.397742643115196	0.2940848009268798	-0.5846719054292211	1.61137437323056	0.5210069968343826	-0.636643498790097	1.614409139474696	0.5113777460536667	-0.5181998184965265	1.283976258690558	0.2317460643355418	-0.6304833975898708	1.28645650132732	0.2299168231674336	-0.5292730529739825	1.491605225107852	0.9287618301435403	-0.540772923629229	1.619030537875396	0.5080670162164203	-0.5749074144401193	1.452669650083706	1.182101858084613	-0.6795876635572554	1.267331475108971	0.2329513186727708	-0.5727448567290777	1.553655827062558	1.469745040859488	-0.6374755309540558	
59	1.7	1.613443641263193	1.453672796625001	-0.4169706076918153	1.508837840719221	1.553183525148658	-0.4393917628048403	1.564188309650304	1.495199415840393	-0.2702958817100773	1.618487383868097	1.442798462269857	-0.248810516685457	1.519405589001748	1.466111724508449	-0.2445884638829139	1.511677797331142	1.166293355440621	-0.1589562737042854	1.462559297296497	1.168541528040388	-0.2296890934023959	1.547777827315748	1.347404778145268	-0.1945397901381561	1.489283287901253	1.316068937972362	-0.1809995748488577	1.529949801920623	1.248667390108015	-0.1772935261456849	1.553825475090311	1.101410326496294	-0.2311409149221143	1.655017132615679	0.9439093791267684	-0.2203626403735428	1.602399065831406	0.9320239407082018	-0.1705607880165366	1.587194878234933	1.008847690194791	-0.3307948407764121	1.40715439832055	1.053746771350263	-0.4065471076677908	1.413761407456311	0.06833387995578313	-0.3847212299683903	1.648555171001588	0.05164149511386218	-0.387261291695604	1.628755778405169	0.02812807280377826	-0.3132460098931461	1.541347343571112	0.8325050545929337	-0.272376640887293	1.581804366619063	0.7345958245517179	-0.2831452305823422	1.520756063264012	0.597875701442744	-0.29641763622127	1.57142408771202	0.3367422669394771	-0.3612101998780058	1.518497210204541	0.2376373715618632	-0.3186740602005602	1.538238832027338	0.162094091078786	-0.3802331316804459	1.542438563767547	0.4791532588654511	-0.3114357145033431	1.548305956687153	0.4943281990638649	-0.4360120299680222	1.492038736045074	0.06336869576209975	-0.3198237869304444	1.499766153320414	0.06232406323743556	-0.4207803486250483	1.500895306499391	0.9239557164342753	-0.3814937149023032	1.549882616004762	0.4933464724808129	-0.3787858546581693	1.488782468182218	1.16259825312989	-0.1918654993432499	1.481752176992046	0.05204941386096212	-0.3779469416910036	1.572072517062956	1.453719559965525	-0.2468326960501057	1.552760238130662	1.519685644909395	-0.6173525721295227	1.605706719057892	1.459219731904565	-0.6394177997756971	1.498698380602235	1.484398055122243	-0.6348579827489506	1.474497329393179	1.192112728062774	-0.7165632067011924	1.437904970462349	1.187511506270592	-0.6389565339796489	1.50863578974948	1.396345692293115	-0.6925664171462225	1.443116553653124	1.33233842534573	-0.6785379973782799	1.495307081377081	1.261251048683545	-0.7054015700938522	1.505991437166116	1.109971488907748	-0.66495718343518	1.552743940303849	0.9291061711883236	-0.6830400446862007	1.493603502737965	0.9314490435568227	-0.7290916398022649	1.581194584722801	1.015074163323159	-0.588101390518907	1.407358271096757	1.057580707453577	-0.4997505120367502	1.242544471435785	0.2850335530988168	-0.5695906580480072	1.394593950244796	0.09883067713757067	-0.5475598132947667	1.361628584356629	0.1021825468678532	-0.6346734744688549	1.522349126927561	0.873871783470092	-0.6514369545374912	1.611394141363153	0.7628720098276563	-0.6440812299645017	1.564512622918454	0.6310307980618783	-0.6495463654714073	1.520308441071334	0.3800715852352543	-0.5954338937104832	1.454133872934456	0.3623851692288599	-0.6391532608154349	1.412738966978641	0.2924453200682359	-0.584428523075013	1.621934575199425	0.5234147822465831	-0.6366620261122923	1.625281412071903	0.5138904746973443	-0.5182182676152887	1.300144147612141	0.2279197255761463	-0.6301062575428217	1.302774479079581	0.2261473818554027	-0.5288986899494738	1.496806198701101	0.9295626129983099	-0.5408150173887319	1.629869006623255	0.5106571252666366	-0.5749300985803854	1.456401462553002	1.183156206630247	-0.6794356233938029	1.28354498002314	0.2288086549807624	-0.5723488510991922	1.55929185225275	1.470140829600233	-0.6374399791403458	
